<svg width="158" height="30" viewBox="0 0 158 30" fill="none" xmlns="http://www.w3.org/2000/svg">
<path d="M10 21.25C10.3542 21.25 10.651 21.1302 10.8906 20.8906C11.1302 20.651 11.25 20.3542 11.25 20C11.25 19.6458 11.1302 19.349 10.8906 19.1094C10.651 18.8698 10.3542 18.75 10 18.75C9.64583 18.75 9.34896 18.8698 9.10938 19.1094C8.86979 19.349 8.75 19.6458 8.75 20C8.75 20.3542 8.86979 20.651 9.10938 20.8906C9.34896 21.1302 9.64583 21.25 10 21.25ZM10 16.25C10.3542 16.25 10.651 16.1302 10.8906 15.8906C11.1302 15.651 11.25 15.3542 11.25 15C11.25 14.6458 11.1302 14.349 10.8906 14.1094C10.651 13.8698 10.3542 13.75 10 13.75C9.64583 13.75 9.34896 13.8698 9.10938 14.1094C8.86979 14.349 8.75 14.6458 8.75 15C8.75 15.3542 8.86979 15.651 9.10938 15.8906C9.34896 16.1302 9.64583 16.25 10 16.25ZM10 11.25C10.3542 11.25 10.651 11.1302 10.8906 10.8906C11.1302 10.651 11.25 10.3542 11.25 10C11.25 9.64583 11.1302 9.34896 10.8906 9.10938C10.651 8.86979 10.3542 8.75 10 8.75C9.64583 8.75 9.34896 8.86979 9.10938 9.10938C8.86979 9.34896 8.75 9.64583 8.75 10C8.75 10.3542 8.86979 10.651 9.10938 10.8906C9.34896 11.1302 9.64583 11.25 10 11.25ZM13.75 21.25H21.25V18.75H13.75V21.25ZM13.75 16.25H21.25V13.75H13.75V16.25ZM13.75 11.25H21.25V8.75H13.75V11.25ZM6.25 26.25C5.5625 26.25 4.97396 26.0052 4.48438 25.5156C3.99479 25.026 3.75 24.4375 3.75 23.75V6.25C3.75 5.5625 3.99479 4.97396 4.48438 4.48438C4.97396 3.99479 5.5625 3.75 6.25 3.75H23.75C24.4375 3.75 25.026 3.99479 25.5156 4.48438C26.0052 4.97396 26.25 5.5625 26.25 6.25V23.75C26.25 24.4375 26.0052 25.026 25.5156 25.5156C25.026 26.0052 24.4375 26.25 23.75 26.25H6.25ZM6.25 23.75H23.75V6.25H6.25V23.75Z" fill="#FF3030"/>
<path d="M35.25 19.875L35.075 16.025L44.25 6.5H47.9L40.275 14.6L38.475 16.575L35.25 19.875ZM32.35 24V6.5H35.6V24H32.35ZM44.55 24L37.85 16.025L40 13.65L48.35 24H44.55ZM82.5453 24V6.5H90.7453C92.8453 6.5 94.4453 6.91667 95.5453 7.75C96.6453 8.56667 97.1953 9.66667 97.1953 11.05C97.1953 11.9833 96.9786 12.7833 96.5453 13.45C96.112 14.1 95.5286 14.6083 94.7953 14.975C94.0786 15.325 93.2953 15.5 92.4453 15.5L92.8953 14.6C93.8786 14.6 94.762 14.7833 95.5453 15.15C96.3286 15.5 96.9453 16.0167 97.3953 16.7C97.862 17.3833 98.0953 18.2333 98.0953 19.25C98.0953 20.75 97.5203 21.9167 96.3703 22.75C95.2203 23.5833 93.512 24 91.2453 24H82.5453ZM85.7953 21.45H91.0453C92.262 21.45 93.1953 21.25 93.8453 20.85C94.4953 20.45 94.8203 19.8083 94.8203 18.925C94.8203 18.0583 94.4953 17.425 93.8453 17.025C93.1953 16.6083 92.262 16.4 91.0453 16.4H85.5453V13.875H90.3953C91.5286 13.875 92.3953 13.675 92.9953 13.275C93.612 12.875 93.9203 12.275 93.9203 11.475C93.9203 10.6583 93.612 10.05 92.9953 9.65C92.3953 9.25 91.5286 9.05 90.3953 9.05H85.7953V21.45Z" fill="#FF3030"/>
<path d="M58.1705 24V21.3L57.9955 20.725V16C57.9955 15.0833 57.7205 14.375 57.1705 13.875C56.6205 13.3583 55.7872 13.1 54.6705 13.1C53.9205 13.1 53.1788 13.2167 52.4455 13.45C51.7288 13.6833 51.1205 14.0083 50.6205 14.425L49.3955 12.15C50.1122 11.6 50.9622 11.1917 51.9455 10.925C52.9455 10.6417 53.9788 10.5 55.0455 10.5C56.9788 10.5 58.4705 10.9667 59.5205 11.9C60.5872 12.8167 61.1205 14.2417 61.1205 16.175V24H58.1705ZM53.9705 24.175C52.9705 24.175 52.0955 24.0083 51.3455 23.675C50.5955 23.325 50.0122 22.85 49.5955 22.25C49.1955 21.6333 48.9955 20.9417 48.9955 20.175C48.9955 19.425 49.1705 18.75 49.5205 18.15C49.8872 17.55 50.4788 17.075 51.2955 16.725C52.1122 16.375 53.1955 16.2 54.5455 16.2H58.4205V18.275H54.7705C53.7038 18.275 52.9872 18.45 52.6205 18.8C52.2538 19.1333 52.0705 19.55 52.0705 20.05C52.0705 20.6167 52.2955 21.0667 52.7455 21.4C53.1955 21.7333 53.8205 21.9 54.6205 21.9C55.3872 21.9 56.0705 21.725 56.6705 21.375C57.2872 21.025 57.7288 20.5083 57.9955 19.825L58.5205 21.7C58.2205 22.4833 57.6788 23.0917 56.8955 23.525C56.1288 23.9583 55.1538 24.175 53.9705 24.175ZM72.7061 10.5C73.7727 10.5 74.7227 10.7083 75.5561 11.125C76.4061 11.5417 77.0727 12.1833 77.5561 13.05C78.0394 13.9 78.2811 15 78.2811 16.35V24H75.1561V16.75C75.1561 15.5667 74.8727 14.6833 74.3061 14.1C73.7561 13.5167 72.9811 13.225 71.9811 13.225C71.2477 13.225 70.5977 13.375 70.0311 13.675C69.4644 13.975 69.0227 14.425 68.7061 15.025C68.4061 15.6083 68.2561 16.35 68.2561 17.25V24H65.1311V10.65H68.1061V14.25L67.5811 13.15C68.0477 12.3 68.7227 11.65 69.6061 11.2C70.5061 10.7333 71.5394 10.5 72.7061 10.5ZM107.264 24.175C105.897 24.175 104.681 23.8833 103.614 23.3C102.547 22.7 101.706 21.8833 101.089 20.85C100.472 19.8167 100.164 18.6417 100.164 17.325C100.164 15.9917 100.472 14.8167 101.089 13.8C101.706 12.7667 102.547 11.9583 103.614 11.375C104.681 10.7917 105.897 10.5 107.264 10.5C108.647 10.5 109.872 10.7917 110.939 11.375C112.022 11.9583 112.864 12.7583 113.464 13.775C114.081 14.7917 114.389 15.975 114.389 17.325C114.389 18.6417 114.081 19.8167 113.464 20.85C112.864 21.8833 112.022 22.7 110.939 23.3C109.872 23.8833 108.647 24.175 107.264 24.175ZM107.264 21.5C108.031 21.5 108.714 21.3333 109.314 21C109.914 20.6667 110.381 20.1833 110.714 19.55C111.064 18.9167 111.239 18.175 111.239 17.325C111.239 16.4583 111.064 15.7167 110.714 15.1C110.381 14.4667 109.914 13.9833 109.314 13.65C108.714 13.3167 108.039 13.15 107.289 13.15C106.522 13.15 105.839 13.3167 105.239 13.65C104.656 13.9833 104.189 14.4667 103.839 15.1C103.489 15.7167 103.314 16.4583 103.314 17.325C103.314 18.175 103.489 18.9167 103.839 19.55C104.189 20.1833 104.656 20.6667 105.239 21C105.839 21.3333 106.514 21.5 107.264 21.5ZM125.431 24V21.3L125.256 20.725V16C125.256 15.0833 124.981 14.375 124.431 13.875C123.881 13.3583 123.048 13.1 121.931 13.1C121.181 13.1 120.44 13.2167 119.706 13.45C118.99 13.6833 118.381 14.0083 117.881 14.425L116.656 12.15C117.373 11.6 118.223 11.1917 119.206 10.925C120.206 10.6417 121.24 10.5 122.306 10.5C124.24 10.5 125.731 10.9667 126.781 11.9C127.848 12.8167 128.381 14.2417 128.381 16.175V24H125.431ZM121.231 24.175C120.231 24.175 119.356 24.0083 118.606 23.675C117.856 23.325 117.273 22.85 116.856 22.25C116.456 21.6333 116.256 20.9417 116.256 20.175C116.256 19.425 116.431 18.75 116.781 18.15C117.148 17.55 117.74 17.075 118.556 16.725C119.373 16.375 120.456 16.2 121.806 16.2H125.681V18.275H122.031C120.965 18.275 120.248 18.45 119.881 18.8C119.515 19.1333 119.331 19.55 119.331 20.05C119.331 20.6167 119.556 21.0667 120.006 21.4C120.456 21.7333 121.081 21.9 121.881 21.9C122.648 21.9 123.331 21.725 123.931 21.375C124.548 21.025 124.99 20.5083 125.256 19.825L125.781 21.7C125.481 22.4833 124.94 23.0917 124.156 23.525C123.39 23.9583 122.415 24.175 121.231 24.175ZM132.392 24V10.65H135.367V14.325L135.017 13.25C135.417 12.35 136.042 11.6667 136.892 11.2C137.758 10.7333 138.833 10.5 140.117 10.5V13.475C139.983 13.4417 139.858 13.425 139.742 13.425C139.625 13.4083 139.508 13.4 139.392 13.4C138.208 13.4 137.267 13.75 136.567 14.45C135.867 15.1333 135.517 16.1583 135.517 17.525V24H132.392ZM148.296 24.175C147.012 24.175 145.854 23.8917 144.821 23.325C143.804 22.7417 143.004 21.9417 142.421 20.925C141.837 19.9083 141.546 18.7083 141.546 17.325C141.546 15.9417 141.837 14.7417 142.421 13.725C143.004 12.7083 143.804 11.9167 144.821 11.35C145.854 10.7833 147.012 10.5 148.296 10.5C149.412 10.5 150.412 10.75 151.296 11.25C152.179 11.7333 152.879 12.475 153.396 13.475C153.912 14.475 154.171 15.7583 154.171 17.325C154.171 18.875 153.921 20.1583 153.421 21.175C152.921 22.175 152.229 22.925 151.346 23.425C150.462 23.925 149.446 24.175 148.296 24.175ZM148.671 21.5C149.421 21.5 150.087 21.3333 150.671 21C151.271 20.6667 151.746 20.1833 152.096 19.55C152.462 18.9167 152.646 18.175 152.646 17.325C152.646 16.4583 152.462 15.7167 152.096 15.1C151.746 14.4667 151.271 13.9833 150.671 13.65C150.087 13.3167 149.421 13.15 148.671 13.15C147.921 13.15 147.246 13.3167 146.646 13.65C146.062 13.9833 145.587 14.4667 145.221 15.1C144.871 15.7167 144.696 16.4583 144.696 17.325C144.696 18.175 144.871 18.9167 145.221 19.55C145.587 20.1833 146.062 20.6667 146.646 21C147.246 21.3333 147.921 21.5 148.671 21.5ZM152.721 24V20.85L152.846 17.3L152.596 13.75V5.45H155.696V24H152.721Z" fill="#3A3A3A"/>
</svg>
